<?xml version="1.0" encoding="utf-8"?>
<!-- Generator: Adobe Illustrator 16.0.4, SVG Export Plug-In . SVG Version: 6.00 Build 0)  -->
<!DOCTYPE svg PUBLIC "-//W3C//DTD SVG 1.1//EN" "http://www.w3.org/Graphics/SVG/1.1/DTD/svg11.dtd">
<svg version="1.1" id="Layer_1" xmlns="http://www.w3.org/2000/svg" xmlns:xlink="http://www.w3.org/1999/xlink" x="0px" y="0px"
	 width="44px" height="44px" viewBox="0 0 44 44" enable-background="new 0 0 44 44" xml:space="preserve">
<g>
	<defs>
		<path id="SVGID_1_" d="M30.396,17.694c0.009,0.184,0.014,0.371,0.014,0.56c0,5.725-4.358,12.329-12.329,12.329
			c-2.447,0-4.725-0.72-6.641-1.948c0.334,0.041,0.683,0.06,1.031,0.06c2.029,0,3.9-0.692,5.381-1.852
			c-1.894-0.036-3.498-1.288-4.047-3.011c0.266,0.05,0.535,0.077,0.814,0.077c0.395,0,0.779-0.05,1.143-0.151
			c-1.98-0.398-3.475-2.149-3.475-4.248v-0.056c0.582,0.326,1.251,0.519,1.961,0.541c-1.164-0.774-1.93-2.099-1.93-3.606
			c0-0.793,0.216-1.536,0.588-2.178c2.14,2.622,5.33,4.35,8.932,4.528c-0.072-0.316-0.109-0.646-0.109-0.985
			c0-2.396,1.939-4.336,4.332-4.336c1.246,0,2.369,0.527,3.162,1.371c0.984-0.197,1.916-0.555,2.75-1.055
			c-0.321,1.013-1.009,1.861-1.902,2.397c0.875-0.101,1.709-0.335,2.488-0.679C31.978,16.319,31.245,17.084,30.396,17.694z"/>
	</defs>
	<use xlink:href="#SVGID_1_"  overflow="visible" fill-rule="evenodd" clip-rule="evenodd" fill="#FFFFFF"/>
	<clipPath id="SVGID_2_">
		<use xlink:href="#SVGID_1_"  overflow="visible"/>
	</clipPath>
</g>
</svg>
