<?xml version="1.0" encoding="UTF-8" standalone="no"?>
<svg width="139px" height="125px" viewBox="0 0 139 125" version="1.1" xmlns="http://www.w3.org/2000/svg" xmlns:xlink="http://www.w3.org/1999/xlink" xmlns:sketch="http://www.bohemiancoding.com/sketch/ns">
    <!-- Generator: Sketch 3.3.2 (12043) - http://www.bohemiancoding.com/sketch -->
    <title>icon-logo</title>
    <desc>Created with Sketch.</desc>
    <defs>
        <radialGradient cx="-4.87590096%" cy="-23.2982056%" fx="-4.87590096%" fy="-23.2982056%" r="93.8469194%" id="radialGradient-1">
            <stop stop-color="#DCDCDC" offset="65.23%"></stop>
            <stop stop-color="#E0E0E0" offset="73.96%"></stop>
            <stop stop-color="#E8E8E8" offset="100%"></stop>
        </radialGradient>
    </defs>
    <g id="Page-1" stroke="none" stroke-width="1" fill="none" fill-rule="evenodd" sketch:type="MSPage">
        <g id="Home" sketch:type="MSArtboardGroup" transform="translate(-561.000000, -840.000000)">
            <g id="icon-logo" sketch:type="MSLayerGroup" transform="translate(561.000000, 840.000000)">
                <g id="Group" sketch:type="MSShapeGroup">
                    <path d="M73.1650769,54.0864609 C77.9821538,59.3693745 84.8281538,62.771674 92.4743077,63.0779455 C90.1266154,61.1027634 87.5150769,59.4317034 84.6978462,58.1206467 C85.5389231,56.0240307 86.6352308,54.0617442 87.9307692,52.2499069 L81.4207692,45.7515793 C79.2507692,49.0474898 76.4464615,51.888829 73.1650769,54.0864609 L73.1650769,54.0864609 Z" id="Shape" fill="#FFFFFF"></path>
                    <path d="M93.5996923,7.99099788 C88.676,7.99099788 84.0570769,9.28378573 80.0563077,11.5362241 C83.9429231,16.5257619 86.2658462,22.7908934 86.2658462,29.6019402 C86.2658462,35.5693974 84.4781538,41.1145223 81.4218462,45.7526539 L87.9318462,52.2509815 C93.0278462,45.1229169 101.368615,40.4675911 110.812154,40.4675911 C113.155538,40.4675911 115.431077,40.7588176 117.608615,41.2982852 C118.563846,41.5336306 119.493231,41.8356035 120.408615,42.1676662 C120.932,40.0474081 121.216308,37.8315074 121.216308,35.5500539 C121.215231,20.3299755 108.851077,7.99099788 93.5996923,7.99099788 L93.5996923,7.99099788 Z" id="Shape" fill="#96FAF0"></path>
                    <path d="M69.8912308,124.762087 C89.2426087,124.762087 104.93,109.108002 104.93,89.7977103 C104.93,70.4874181 89.2426087,54.8333333 69.8912308,54.8333333 C50.5398529,54.8333333 34.8524615,70.4874181 34.8524615,89.7977103 C34.8524615,109.108002 50.5398529,124.762087 69.8912308,124.762087 Z" id="Oval" fill="#E8E8E8"></path>
                    <path d="M100.904462,73.5492046 C99.2513846,70.4112657 97.1416923,67.550583 94.6507692,65.0649486 C91.784,62.2064152 88.4164615,59.8508117 84.6978462,58.1195721 C83.4109231,61.3370341 82.6958462,64.8467973 82.6958462,68.5242038 C82.6958462,71.4267973 83.1373846,74.2294496 83.958,76.8655332 C84.8496923,76.9407578 85.7435385,76.9826686 86.6373846,76.9826686 C91.5406154,76.9837433 96.4395385,75.8328074 100.904462,73.5492046 L100.904462,73.5492046 Z" id="Shape" fill="#96FAF0"></path>
                    <path d="M100.904462,73.5492046 C96.4395385,75.8328074 91.5406154,76.9826686 86.6373846,76.9826686 C85.7435385,76.9826686 84.8496923,76.9407578 83.958,76.8655332 C86.8947692,86.2836485 94.6723077,93.5686102 104.384,95.8350188 C104.726462,93.8727323 104.916,91.8599379 104.916,89.8009342 C104.916,83.931269 103.462154,78.4044129 100.904462,73.5492046 L100.904462,73.5492046 Z" id="Shape" fill="#96FAF0"></path>
                    <path d="M80.0563077,11.5351494 C74.6523077,4.60051935 66.22,0.134329577 56.7366154,0.134329577 C40.4266154,0.134329577 27.2073846,13.3276433 27.2073846,29.6008656 C27.2073846,45.8762371 40.4266154,59.0674016 56.7366154,59.0674016 C62.8169231,59.0674016 68.4696923,57.2308476 73.1661538,54.0864609 C68.7044615,49.1893418 65.9852308,42.685641 65.9852308,35.5489793 C65.9841538,25.2410648 71.6573846,16.2624759 80.0563077,11.5351494 L80.0563077,11.5351494 Z" id="Shape" fill="#E8E8E8"></path>
                    <path d="M86.2658462,29.6008656 C86.2658462,22.7898187 83.944,16.5246872 80.0563077,11.5351494 C71.6573846,16.2614013 65.9852308,25.2410648 65.9852308,35.5489793 C65.9852308,42.685641 68.7044615,49.1893418 73.1661538,54.0864609 C81.0632308,48.7970995 86.2658462,39.8056149 86.2658462,29.6008656 L86.2658462,29.6008656 Z" id="Shape" fill="#FFFFFF"></path>
                    <path d="M120.407538,42.1665915 C117.435231,54.189626 106.564769,63.1048114 93.5996923,63.1048114 C93.2206154,63.1048114 92.8469231,63.0919157 92.4743077,63.0779455 C93.2270769,63.7098318 93.9550769,64.3707333 94.6507692,65.0660232 C97.1406154,67.550583 99.2503077,70.4123404 100.904462,73.5502793 C103.462154,78.4054875 104.916,83.931269 104.916,89.8020088 C104.916,91.8610126 104.726462,93.873807 104.384,95.8360934 C106.449538,96.3186053 108.599077,96.5808166 110.812154,96.5808166 C126.339231,96.5808166 138.929538,84.0193892 138.929538,68.5252785 C138.929538,56.3937057 131.205846,46.083642 120.407538,42.1665915 L120.407538,42.1665915 Z" id="Shape" fill="#E8E8E8"></path>
                    <path d="M120.407538,42.1665915 C119.492154,41.8345288 118.562769,41.5325559 117.607538,41.2972105 C115.431077,40.7577429 113.154462,40.4665164 110.811077,40.4665164 C98.9670769,40.4665164 88.8418462,47.7772693 84.6978462,58.1206467 C87.514,59.432778 90.1266154,61.1027634 92.4743077,63.0779455 C92.8469231,63.0929904 93.2206154,63.1048114 93.5996923,63.1048114 C106.564769,63.105886 117.435231,54.189626 120.407538,42.1665915 L120.407538,42.1665915 Z" id="Shape" fill="url(#radialGradient-1)"></path>
                    <path d="M120.407538,42.1665915 C119.492154,41.8345288 118.562769,41.5325559 117.607538,41.2972105 C115.431077,40.7577429 113.154462,40.4665164 110.811077,40.4665164 C98.9670769,40.4665164 88.8418462,47.7772693 84.6978462,58.1206467 C87.514,59.432778 90.1266154,61.1027634 92.4743077,63.0779455 C92.8469231,63.0929904 93.2206154,63.1048114 93.5996923,63.1048114 C106.564769,63.105886 117.435231,54.189626 120.407538,42.1665915 L120.407538,42.1665915 Z" id="Shape" fill="#D9D9D9"></path>
                    <path d="M66.2943077,35.3942316 C64.2707692,33.3728401 62.0178462,31.5867941 59.5807692,30.0565115 C53.6792308,26.3500898 46.6953846,24.1986673 39.2096923,24.1986673 C29.2524615,24.1943688 20.1869231,27.9867614 13.37,34.1938625 C12.8250769,36.7289303 12.5450769,39.3112821 12.5450769,41.8947085 C12.5450769,51.282734 16.1333846,60.6696848 23.2970769,67.8267647 C27.4173846,71.9340258 32.2678462,74.8602613 37.4316923,76.6129936 C39.2086154,72.2682378 41.8276923,68.3576351 45.094,65.0918145 C48.5746154,61.6164397 52.7864615,58.8728924 57.4786154,57.0975927 C60.4089231,55.9896423 63.5298462,55.263188 66.7778462,54.9773346 C69.4044615,52.7270456 72.2464615,50.8636257 75.2338462,49.3860003 C73.2996923,44.0729969 70.2229231,39.3102074 66.2943077,35.3942316 L66.2943077,35.3942316 Z" id="Shape" fill="#96FAF0"></path>
                    <path d="M57.4786154,57.096518 C52.7864615,58.8718177 48.5746154,61.615365 45.094,65.0907398 C41.8276923,68.3565605 39.2086154,72.2671632 37.4316923,76.611919 C35.77,80.6815679 34.8449231,85.1316381 34.8363077,89.7987849 C34.8449231,93.5686102 35.4523077,97.1933595 36.5615385,100.595659 C37.4306154,100.654764 38.3029231,100.696675 39.1881538,100.696675 C44.5555385,100.694526 49.6612308,99.5908738 54.2984615,97.6049453 C53.1461538,93.7781643 52.5656923,89.8159791 52.5656923,85.85057 C52.5656923,83.3402188 52.8036923,80.8298677 53.2656923,78.3528303 C54.3232308,72.6776743 56.602,67.1884305 60.0912308,62.2923861 C61.3932308,60.4601307 62.8546154,58.7073983 64.498,57.0642789 C65.2367692,56.3292275 66.0013846,55.6414601 66.7778462,54.97626 C63.5298462,55.2621133 60.4089231,55.9885677 57.4786154,57.096518 L57.4786154,57.096518 Z" id="Shape" fill="#FFFFFF"></path>
                    <path d="M37.4316923,76.611919 C35.77,80.6815679 34.8449231,85.1316381 34.8363077,89.7987849 C34.8449231,93.5686102 35.4523077,97.1933595 36.5615385,100.595659 C27.0372308,99.9465785 18.4563077,95.8307202 12.1013846,89.4882149 C5.16061538,82.5621819 0.873384615,73.0075878 0.860461538,62.4525069 C0.869076923,51.888829 5.15523077,42.3385334 12.0798462,35.4210975 C12.5009231,35.0009146 12.9295385,34.5925527 13.3689231,34.1927878 C12.824,36.7278556 12.544,39.3102074 12.544,41.8936338 C12.544,51.2816593 16.1323077,60.6686102 23.296,67.82569 C27.4173846,71.9340258 32.2678462,74.8591867 37.4316923,76.611919 L37.4316923,76.611919 Z" id="Shape" fill="#E8E8E8"></path>
                    <path d="M76.888,55.5329218 C76.5035385,53.4169623 75.9521538,51.3622571 75.2327692,49.3849257 C72.2464615,50.862551 69.4044615,52.7259709 66.7767692,54.97626 C66.0003077,55.6414601 65.2346154,56.3303021 64.4969231,57.0642789 C62.8546154,58.7073983 61.3921538,60.4601307 60.0901538,62.2923861 C56.6009231,67.1895051 54.3232308,72.6776743 53.2646154,78.3528303 C52.8015385,80.8298677 52.5646154,83.3402188 52.5646154,85.85057 C52.5646154,89.8149045 53.1450769,93.7781643 54.2973846,97.6049453 C58.8107692,95.6695247 62.8815385,92.8991115 66.3007692,89.4817671 C70.3661538,85.4271632 73.5129231,80.4569688 75.4298462,74.9129185 C76.4583077,71.9361751 77.1270769,68.7971615 77.3898462,65.5410126 C77.4695385,64.5211824 77.5244615,63.4949045 77.5244615,62.4535816 C77.5255385,60.0872317 77.2983077,57.7789123 76.888,55.5329218 L76.888,55.5329218 Z" id="Path" fill="#EFEFEF"></path>
                    <g transform="translate(45.230769, 33.313735)" fill="#000000">
                        <g id="Rectangle-path">
                            <rect x="34.7878462" y="0.35248081" width="14.2778462" height="57.5596864"></rect>
                            <rect x="0.260615385" y="0.35248081" width="14.2778462" height="57.5596864"></rect>
                        </g>
                        <path d="M32.2947692,29.1344733 C32.2947692,33.3363025 28.8766154,36.7450498 24.6593846,36.7450498 C20.4507692,36.7450498 17.0304615,33.3363025 17.0304615,29.1344733 C17.0304615,24.9261963 20.4507692,21.517449 24.6593846,21.517449 C28.8766154,21.517449 32.2947692,24.9261963 32.2947692,29.1344733 L32.2947692,29.1344733 Z" id="Shape"></path>
                    </g>
                    <path d="M54.3189231,97.6092438 C49.6784615,99.5951723 44.576,100.698824 39.2086154,100.700973 C38.3255385,100.700973 37.45,100.659063 36.582,100.599958 C38.3104615,105.906513 41.2709231,110.659631 45.1338462,114.517576 C51.4715385,120.843962 60.2323077,124.757789 69.8901538,124.759938 C72.8269231,124.759938 75.67,124.394561 78.3935385,123.718615 C73.3438462,121.730537 68.6043077,118.70651 64.5173846,114.630413 C59.5947692,109.711801 56.1938462,103.841062 54.3189231,97.6092438 L54.3189231,97.6092438 Z" id="Shape" fill="#96FAF0"></path>
                </g>
            </g>
        </g>
    </g>
</svg>