<?xml version="1.0" encoding="UTF-8" standalone="no"?>
<svg width="80px" height="80px" viewBox="0 0 80 80" version="1.1" xmlns="http://www.w3.org/2000/svg" xmlns:xlink="http://www.w3.org/1999/xlink" xmlns:sketch="http://www.bohemiancoding.com/sketch/ns">
    <!-- Generator: Sketch 3.3.2 (12043) - http://www.bohemiancoding.com/sketch -->
    <title>icon-use</title>
    <desc>Created with Sketch.</desc>
    <defs></defs>
    <g id="Page-1" stroke="none" stroke-width="1" fill="none" fill-rule="evenodd" sketch:type="MSPage">
        <g id="Home" sketch:type="MSArtboardGroup" transform="translate(-300.000000, -1302.000000)">
            <g id="icon-use" sketch:type="MSLayerGroup" transform="translate(300.000000, 1302.000000)">
                <circle fill="#000000" sketch:type="MSShapeGroup" cx="40" cy="40" r="40"></circle>
                <path d="M51,22 L57,22 L57,48 L51,48 L51,22 Z" id="Fill-1" fill="#FFFFFF" sketch:type="MSShapeGroup"></path>
                <path d="M23,32 L29,32 L29,58 L23,58 L23,32 Z" id="Fill-2" fill="#FFFFFF" sketch:type="MSShapeGroup"></path>
                <path d="M49,35 C49,36.656345 47.6570876,38 45.999171,38 C44.3429124,38 43,36.656345 43,35 C43,33.3428255 44.3429124,32 45.999171,32 C47.6570876,32 49,33.3428255 49,35" id="Fill-3" fill="#FFFFFF" sketch:type="MSShapeGroup"></path>
                <path d="M43,40.0004147 C43,41.6565308 41.6585602,43 39.9995855,43 C38.343927,43 37,41.6565308 37,40.0004147 C37,38.3434692 38.343927,37 39.9995855,37 C41.6585602,37 43,38.3434692 43,40.0004147" id="Fill-4" fill="#FFFFFF" sketch:type="MSShapeGroup"></path>
                <path d="M37,45 C37,46.6571745 35.6585602,48 33.9995855,48 C32.343927,48 31,46.6571745 31,45 C31,43.3428255 32.343927,42 33.9995855,42 C35.6585602,42 37,43.3428255 37,45" id="Fill-5" fill="#FFFFFF" sketch:type="MSShapeGroup"></path>
            </g>
        </g>
    </g>
</svg>