<?xml version="1.0" encoding="utf-8"?>
<!-- Generator: Adobe Illustrator 16.0.4, SVG Export Plug-In . SVG Version: 6.00 Build 0)  -->
<!DOCTYPE svg PUBLIC "-//W3C//DTD SVG 1.1//EN" "http://www.w3.org/Graphics/SVG/1.1/DTD/svg11.dtd">
<svg version="1.1" id="Layer_1" xmlns="http://www.w3.org/2000/svg" xmlns:xlink="http://www.w3.org/1999/xlink" x="0px" y="0px"
	 width="44px" height="44px" viewBox="0 0 44 44" enable-background="new 0 0 44 44" xml:space="preserve">
<g>
	<defs>
		<path id="SVGID_1_" d="M19.929,15.776c-0.555-1.947-1.448-2.521-2.838-2.521c-0.15,0-0.302,0.019-0.444,0.06
			c-0.604,0.17-1.081,0.674-1.348,1.416c-0.271,0.761-0.288,1.55-0.055,2.448c0.422,1.608,1.562,2.772,2.718,2.772
			c0.151,0,0.298-0.022,0.444-0.064C19.662,19.535,20.451,17.614,19.929,15.776z M20.73,31.446c-1.38,0.67-2.869,0.742-3.446,0.742
			c-0.105,0-0.17-0.004-0.184-0.004h-0.11c-0.898,0-5.367-0.207-5.367-4.275c0-4.002,4.868-4.314,6.362-4.314h0.036
			c-0.861-1.15-0.683-2.314-0.683-2.314c-0.073,0.01-0.184,0.014-0.321,0.014c-0.563,0-1.646-0.092-2.575-0.691
			c-1.142-0.733-1.719-1.985-1.719-3.713c0-4.881,5.33-5.078,5.385-5.078h5.326v0.114c0,0.596-1.068,0.711-1.801,0.807
			c-0.248,0.037-0.743,0.087-0.885,0.16c1.352,0.72,1.567,1.852,1.567,3.539c0,1.92-0.752,2.933-1.55,3.647
			c-0.49,0.44-0.88,0.789-0.88,1.252c0,0.453,0.532,0.926,1.15,1.467c1.009,0.888,2.397,2.103,2.397,4.148
			C23.435,29.06,22.522,30.575,20.73,31.446z M32.377,21.978h-3.475v3.474h-2.2v-3.474h-3.474v-2.2h3.474v-3.475h2.2v3.475h3.475
			V21.978z M17.926,24.636c-0.119,0-0.238,0.004-0.357,0.014c-1.022,0.074-1.958,0.459-2.641,1.072
			c-0.674,0.609-1.018,1.381-0.967,2.16c0.101,1.627,1.852,2.584,3.974,2.428c2.095-0.15,3.488-1.355,3.383-2.982
			C21.221,25.796,19.892,24.636,17.926,24.636z"/>
	</defs>
	<use xlink:href="#SVGID_1_"  overflow="visible" fill-rule="evenodd" clip-rule="evenodd" fill="#FFFFFF"/>
	<clipPath id="SVGID_2_">
		<use xlink:href="#SVGID_1_"  overflow="visible"/>
	</clipPath>
</g>
</svg>
