<?xml version="1.0" encoding="utf-8"?>
<!-- Generator: Adobe Illustrator 16.0.4, SVG Export Plug-In . SVG Version: 6.00 Build 0)  -->
<!DOCTYPE svg PUBLIC "-//W3C//DTD SVG 1.1//EN" "http://www.w3.org/Graphics/SVG/1.1/DTD/svg11.dtd">
<svg version="1.1" id="Layer_1" xmlns="http://www.w3.org/2000/svg" xmlns:xlink="http://www.w3.org/1999/xlink" x="0px" y="0px"
	 width="44px" height="44px" viewBox="0 0 44 44" enable-background="new 0 0 44 44" xml:space="preserve">
<path fill-rule="evenodd" clip-rule="evenodd" fill="#FFFFFF" d="M17.513,44.001c0,0-0.02-4.051-0.03-5.932
	c-6.274,1.361-7.599-3.025-7.599-3.025c-1.026-2.605-2.505-3.299-2.505-3.299c-2.048-1.399,0.155-1.372,0.155-1.372
	c2.264,0.16,3.455,2.325,3.455,2.325c2.012,3.447,5.279,2.451,6.564,1.875c0.205-1.457,0.788-2.451,1.433-3.016
	c-5.009-0.569-10.275-2.505-10.275-11.149c0-2.461,0.88-4.477,2.322-6.053c-0.232-0.57-1.007-2.865,0.222-5.969
	c0,0,1.893-0.607,6.202,2.312c1.799-0.502,3.729-0.752,5.647-0.762c1.916,0.01,3.845,0.26,5.646,0.762
	c4.307-2.92,6.196-2.312,6.196-2.312c1.231,3.104,0.457,5.398,0.227,5.969c1.445,1.576,2.317,3.592,2.317,6.053
	c0,8.666-5.274,10.572-10.298,11.132c0.809,0.697,1.53,2.072,1.53,4.178c0,3.014-0.028,8.284-0.028,8.284H17.513z"/>
</svg>
