<?xml version="1.0" encoding="UTF-8" standalone="no"?>
<svg width="140px" height="25px" viewBox="0 0 140 25" version="1.1" xmlns="http://www.w3.org/2000/svg" xmlns:xlink="http://www.w3.org/1999/xlink" xmlns:sketch="http://www.bohemiancoding.com/sketch/ns">
    <!-- Generator: Sketch 3.3.2 (12043) - http://www.bohemiancoding.com/sketch -->
    <title>logo</title>
    <desc>Created with Sketch.</desc>
    <defs></defs>
    <g id="Page-1" stroke="none" stroke-width="1" fill="none" fill-rule="evenodd" sketch:type="MSPage">
        <g id="Content-with-sidebar" sketch:type="MSArtboardGroup" transform="translate(-80.000000, -40.000000)" fill="#000000">
            <g id="Group" sketch:type="MSLayerGroup" transform="translate(0.000000, 40.000000)">
                <g id="logo" transform="translate(80.000000, 0.299999)" sketch:type="MSShapeGroup">
                    <path d="M0.484501164,10.2392554 C0.484501164,4.46888573 4.17906773,0.180952358 10.0038702,0.180952358 C15.8561342,0.180952358 19.5507008,4.46888573 19.5507008,10.2392554 C19.5507008,16.0110961 15.8561342,20.2990295 10.0038702,20.2990295 C4.17906773,20.2990295 0.484501164,16.0110961 0.484501164,10.2392554 L0.484501164,10.2392554 Z M14.6963718,10.2392554 C14.6963718,6.73397771 13.1595028,4.03734623 10.0313318,4.03734623 C6.92964164,4.03734623 5.33833974,6.73397771 5.33833974,10.2392554 C5.33833974,13.7460042 6.92964164,16.4156644 10.0313318,16.4156644 C13.1595028,16.4156644 14.6963718,13.7460042 14.6963718,10.2392554 L14.6963718,10.2392554 Z" id="Fill-1"></path>
                    <path d="M21.1439642,6.03272603 L25.350984,6.03272603 L25.350984,7.70494158 L25.4318976,7.70494158 C26.3758903,6.46426552 27.7244512,5.62864813 29.6119461,5.62864813 C33.2795415,5.62864813 35.5176622,8.78379032 35.5176622,12.9368676 C35.5176622,17.4135995 33.1177141,20.2715679 29.5040612,20.2715679 C27.7244512,20.2715679 26.4568039,19.5703162 25.5937249,18.4115346 L25.5397825,18.4115346 L25.5397825,24.397674 L21.1439642,24.397674 L21.1439642,6.03272603 L21.1439642,6.03272603 Z M31.0679015,13.0986949 C31.0679015,10.7252277 30.1783417,9.160897 28.2903564,9.160897 C26.3758903,9.160897 25.404436,10.8600838 25.404436,13.0986949 C25.404436,15.3368157 26.4832848,16.8741751 28.3712701,16.8741751 C30.0429952,16.8741751 31.0679015,15.4442102 31.0679015,13.0986949 L31.0679015,13.0986949 Z" id="Fill-2"></path>
                    <path d="M36.3827028,12.9098964 C36.3827028,8.78379032 39.2686231,5.62864813 43.4751525,5.62864813 C45.4435611,5.62864813 47.0078917,6.27546699 48.1946254,7.35480612 C49.8393793,8.86470398 50.6485159,11.2641617 50.6215446,14.068678 L40.6976073,14.068678 C40.9673195,15.9296921 41.9917355,17.0899449 43.7988071,17.0899449 C44.9580791,17.0899449 45.7132732,16.5774917 46.0913607,15.7144127 L50.3788037,15.7144127 C50.0821203,16.9545984 49.2729837,18.141332 48.0592789,18.9774398 C46.9000069,19.7870667 45.4979939,20.2445967 43.7448647,20.2445967 C39.1872191,20.2445967 36.3827028,17.0899449 36.3827028,12.9098964 L36.3827028,12.9098964 Z M46.171784,11.4534506 C46.010447,9.80820625 44.9855407,8.75681911 43.5560661,8.75681911 C41.884341,8.75681911 41.021262,9.80820625 40.7240882,11.4534506 L46.171784,11.4534506 L46.171784,11.4534506 Z" id="Fill-3"></path>
                    <path d="M52.1064328,6.03272603 L56.3404238,6.03272603 L56.3404238,7.92071133 L56.4213374,7.92071133 C57.4462437,6.43680392 58.767343,5.62864813 60.68279,5.62864813 C63.7030761,5.62864813 65.4826861,7.78536485 65.4826861,10.8600838 L65.4826861,19.8405188 L61.0868679,19.8405188 L61.0868679,11.750134 C61.0868679,10.2941786 60.3586449,9.29624348 58.9291704,9.29624348 C57.4732149,9.29624348 56.5022511,10.5094579 56.5022511,12.2091351 L56.5022511,19.8405188 L52.1064328,19.8405188 L52.1064328,6.03272603" id="Fill-4"></path>
                    <path d="M85.8209465,12.9633484 C85.8209465,8.81027116 88.7872901,5.65561935 93.2100796,5.65561935 C97.6593499,5.65561935 100.572242,8.81027116 100.572242,12.9633484 C100.572242,17.1164257 97.6593499,20.2715679 93.2100796,20.2715679 C88.7872901,20.2715679 85.8209465,17.1164257 85.8209465,12.9633484 L85.8209465,12.9633484 Z M96.1224808,12.9633484 C96.1224808,10.4560059 95.0975745,8.75681911 93.1831084,8.75681911 C91.2681519,8.75681911 90.2707072,10.4560059 90.2707072,12.9633484 C90.2707072,15.4721622 91.2681519,17.1433969 93.1831084,17.1433969 C95.0975745,17.1433969 96.1224808,15.4721622 96.1224808,12.9633484 L96.1224808,12.9633484 Z" id="Fill-5"></path>
                    <path d="M102.056639,6.03272603 L106.263659,6.03272603 L106.263659,8.00162498 L106.344573,8.00162498 C107.207652,6.5721504 108.529241,5.62864813 110.524621,5.62864813 C112.331202,5.62864813 113.706735,6.5721504 114.407986,8.05556742 L114.461929,8.05556742 C115.540287,6.38335187 117.024194,5.62864813 118.803805,5.62864813 C121.931976,5.62864813 123.496306,7.75888402 123.496306,10.8600838 L123.496306,19.8405188 L119.100488,19.8405188 L119.100488,11.6417587 C119.100488,10.1588321 118.47966,9.29624348 117.15856,9.29624348 C115.756547,9.29624348 114.974382,10.4560059 114.974382,12.1007598 L114.974382,19.8405188 L110.578564,19.8405188 L110.578564,11.6417587 C110.578564,10.1588321 109.958716,9.29624348 108.636636,9.29624348 C107.261104,9.29624348 106.452458,10.4560059 106.452458,12.1007598 L106.452458,19.8405188 L102.056639,19.8405188 L102.056639,6.03272603" id="Fill-6"></path>
                    <path d="M124.874781,12.9098964 C124.874781,8.78379032 127.75972,5.62864813 131.96674,5.62864813 C133.935639,5.62864813 135.49997,6.27546699 136.686213,7.35480612 C138.331457,8.86470398 139.140103,11.2641617 139.113623,14.068678 L129.189195,14.068678 C129.458907,15.9296921 130.483813,17.0899449 132.290885,17.0899449 C133.450157,17.0899449 134.205351,16.5774917 134.582948,15.7144127 L138.870882,15.7144127 C138.574198,16.9545984 137.765062,18.141332 136.551357,18.9774398 C135.392085,19.7870667 133.989581,20.2445967 132.236452,20.2445967 C127.679297,20.2445967 124.874781,17.0899449 124.874781,12.9098964 L124.874781,12.9098964 Z M134.663371,11.4534506 C134.502035,9.80820625 133.477128,8.75681911 132.047654,8.75681911 C130.375928,8.75681911 129.51334,9.80820625 129.216166,11.4534506 L134.663371,11.4534506 L134.663371,11.4534506 Z" id="Fill-7"></path>
                    <path d="M79.29195,0.558059032 L84.0653653,0.558059032 L84.0653653,19.8405188 L79.29195,19.8405188 L79.29195,0.558059032 Z" id="Fill-8"></path>
                    <path d="M67.7497396,0.558059032 L72.5231549,0.558059032 L72.5231549,19.8405188 L67.7497396,19.8405188 L67.7497396,0.558059032 Z" id="Fill-9"></path>
                    <path d="M78.4587846,10.1990437 C78.4587846,11.6074317 77.3171664,12.7500306 75.9073073,12.7500306 C74.4989193,12.7500306 73.3563204,11.6074317 73.3563204,10.1990437 C73.3563204,8.79016534 74.4989193,7.64854721 75.9073073,7.64854721 C77.3171664,7.64854721 78.4587846,8.79016534 78.4587846,10.1990437" id="Fill-10"></path>
                </g>
            </g>
        </g>
    </g>
</svg>