<?xml version="1.0" encoding="UTF-8" standalone="no"?>
<svg width="780px" height="267px" viewBox="0 0 780 267" version="1.1" xmlns="http://www.w3.org/2000/svg" xmlns:xlink="http://www.w3.org/1999/xlink" xmlns:sketch="http://www.bohemiancoding.com/sketch/ns">
    <!-- Generator: Sketch 3.3.2 (12043) - http://www.bohemiancoding.com/sketch -->
    <title>share</title>
    <desc>Created with Sketch.</desc>
    <defs></defs>
    <g id="Page-1" stroke="none" stroke-width="1" fill="none" fill-rule="evenodd" sketch:type="MSPage">
        <g id="Home" sketch:type="MSArtboardGroup" transform="translate(-238.000000, -247.000000)" fill="#FFFFFF">
            <g id="share" sketch:type="MSLayerGroup" transform="translate(238.000000, 247.000000)">
                <path d="M439.068244,0.00372125436 L387.948889,141.938875 L423.351756,141.938875 L431.51147,116.327341 L481.232043,116.327341 L489.580932,141.938875 L526.574552,141.938875 L475.263226,0.00372125436 L439.068244,0.00372125436 L439.068244,0.00372125436 Z M439.661864,91.1195645 L450.604229,56.7770383 C452.985233,49.4340732 456.368961,36.7287805 456.368961,36.7287805 L456.764086,36.7287805 C456.764086,36.7287805 459.949319,49.4340732 462.336846,56.7770383 L473.073262,91.1195645 L439.661864,91.1195645 L439.661864,91.1195645 Z M343.183226,141.938875 L378.38853,141.938875 L378.38853,0 L343.183226,0 L343.183226,141.938875 L343.183226,141.938875 Z M71.3993548,175.152 C50.1166308,170.389725 39.1826523,168.007192 39.1826523,158.078885 C39.1826523,150.140519 47.3339785,144.781913 59.6667384,144.781913 C72.790681,144.781913 81.1442294,150.934077 82.5392832,161.851307 L116.94595,161.851307 C115.554624,132.078481 91.68681,118.181456 60.8605018,118.181456 C29.0389247,118.181456 4.37247312,131.478429 4.37247312,161.851307 C4.37247312,191.628784 30.4302509,199.172697 55.0892473,204.929477 C74.5817921,209.695474 86.115914,212.079868 86.115914,223.392481 C86.115914,234.110624 74.7784229,238.279359 63.2443011,238.279359 C46.3377778,238.279359 36.9926882,232.325352 35.4037993,218.030153 L0,218.030153 C0.794910394,249.397537 25.6551971,266.070617 63.4455914,266.070617 C96.2596416,266.070617 121.717276,249.593833 121.717276,219.820077 C121.717276,189.447199 97.8522581,181.308815 71.3993548,175.152 L71.3993548,175.152 Z M136.048961,262.69823 L171.254265,262.69823 L171.254265,120.759355 L136.048961,120.759355 L136.048961,262.69823 L136.048961,262.69823 Z M318.22043,52.1943136 C307.837204,52.1943136 299.410036,60.5987666 299.410036,70.9699024 C299.410036,81.3373171 307.837204,89.7454913 318.22043,89.7454913 C328.621362,89.7454913 337.03828,81.3373171 337.03828,70.9699024 C337.03828,60.5978362 328.621362,52.1943136 318.22043,52.1943136 L318.22043,52.1943136 Z M287.720287,82.3839199 C277.336129,82.3839199 268.906165,90.7874425 268.906165,101.159509 C268.906165,111.526923 277.336129,119.934167 287.720287,119.934167 C298.121219,119.934167 306.537204,111.525993 306.537204,101.159509 C306.537204,90.7874425 298.121219,82.3839199 287.720287,82.3839199 L287.720287,82.3839199 Z M257.215484,112.573526 C246.831326,112.573526 238.404158,120.977049 238.404158,131.348185 C238.404158,141.715599 246.831326,150.124704 257.215484,150.124704 C267.616416,150.124704 276.032401,141.715599 276.032401,131.348185 C276.033333,120.977979 267.616416,112.573526 257.215484,112.573526 L257.215484,112.573526 Z M226.710681,142.764063 C216.326523,142.764063 207.904014,151.167585 207.904014,161.539652 C207.904014,171.906136 216.327455,180.31524 226.710681,180.31524 C237.111613,180.31524 245.52853,171.906136 245.52853,161.539652 C245.52853,151.167585 237.111613,142.764063 226.710681,142.764063 L226.710681,142.764063 Z M196.209606,172.953669 C185.82638,172.953669 177.399211,181.357192 177.399211,191.729258 C177.399211,202.095742 185.825448,210.504847 196.209606,210.504847 C206.61147,210.504847 215.027455,202.095742 215.027455,191.729258 C215.027455,181.357192 206.61147,172.953669 196.209606,172.953669 L196.209606,172.953669 Z M654.47405,46.8533833 C654.47405,32.7563415 649.102581,21.4446585 640.153548,12.9062404 C631.203584,4.56597909 618.475699,0.00372125436 601.17405,0.00372125436 L536.534695,0.00372125436 L536.534695,141.938875 L572.332688,141.938875 L572.332688,91.7149652 L592.620143,91.7149652 L621.459642,141.938875 L661.038351,141.938875 L628.022079,86.7517422 C644.332186,79.80323 654.47405,65.7099094 654.47405,46.8533833 L654.47405,46.8533833 Z M599.180717,64.1200035 L572.331756,64.1200035 L572.331756,29.5802509 L599.180717,29.5802509 C611.711971,29.5802509 618.874552,35.5379791 618.874552,46.6533659 C618.874552,57.7678223 611.711971,64.1200035 599.180717,64.1200035 L599.180717,64.1200035 Z M706.201935,112.160467 L706.201935,81.7885192 L768.453763,81.7885192 L768.453763,54.3935749 L706.201935,54.3935749 L706.201935,28.9839199 L778.795054,28.9839199 L778.795054,0.00372125436 L670.996631,0.00372125436 L670.996631,141.938875 L779.988817,141.938875 L779.988817,112.160467 L706.201935,112.160467 L706.201935,112.160467 Z" id="Shape" sketch:type="MSShapeGroup"></path>
            </g>
        </g>
    </g>
</svg>